<mxfile host="app.diagrams.net" modified="2024-07-06T08:51:07.185Z" agent="Mozilla/5.0 (Windows NT 10.0; Win64; x64) AppleWebKit/537.36 (KHTML, like Gecko) Chrome/111.0.0.0 Safari/537.36" etag="FjwGWk4A3VpUBAynpWik" version="24.5.5" type="github">
  <diagram name="第 1 页" id="PnygnAuGKxlmpIp5ZzvZ">
    <mxGraphModel dx="1035" dy="926" grid="1" gridSize="10" guides="1" tooltips="1" connect="1" arrows="1" fold="1" page="1" pageScale="1" pageWidth="827" pageHeight="1169" math="0" shadow="0">
      <root>
        <mxCell id="0" />
        <mxCell id="1" parent="0" />
        <mxCell id="new3ilakPi4w05_GS01H-17" value="" style="edgeStyle=orthogonalEdgeStyle;rounded=0;orthogonalLoop=1;jettySize=auto;html=1;" edge="1" parent="1" source="new3ilakPi4w05_GS01H-1" target="new3ilakPi4w05_GS01H-16">
          <mxGeometry relative="1" as="geometry" />
        </mxCell>
        <mxCell id="new3ilakPi4w05_GS01H-1" value="玩家登录" style="rounded=1;whiteSpace=wrap;html=1;" vertex="1" parent="1">
          <mxGeometry x="190" y="340" width="120" height="60" as="geometry" />
        </mxCell>
        <mxCell id="new3ilakPi4w05_GS01H-10" value="" style="edgeStyle=orthogonalEdgeStyle;rounded=0;orthogonalLoop=1;jettySize=auto;html=1;" edge="1" parent="1" source="new3ilakPi4w05_GS01H-4" target="new3ilakPi4w05_GS01H-9">
          <mxGeometry relative="1" as="geometry" />
        </mxCell>
        <mxCell id="new3ilakPi4w05_GS01H-11" value="是" style="edgeLabel;html=1;align=center;verticalAlign=middle;resizable=0;points=[];" vertex="1" connectable="0" parent="new3ilakPi4w05_GS01H-10">
          <mxGeometry x="-0.1" y="-5" relative="1" as="geometry">
            <mxPoint as="offset" />
          </mxGeometry>
        </mxCell>
        <mxCell id="new3ilakPi4w05_GS01H-13" value="" style="edgeStyle=orthogonalEdgeStyle;rounded=0;orthogonalLoop=1;jettySize=auto;html=1;" edge="1" parent="1" source="new3ilakPi4w05_GS01H-4" target="new3ilakPi4w05_GS01H-12">
          <mxGeometry relative="1" as="geometry" />
        </mxCell>
        <mxCell id="new3ilakPi4w05_GS01H-14" value="否" style="edgeLabel;html=1;align=center;verticalAlign=middle;resizable=0;points=[];" vertex="1" connectable="0" parent="new3ilakPi4w05_GS01H-13">
          <mxGeometry relative="1" as="geometry">
            <mxPoint as="offset" />
          </mxGeometry>
        </mxCell>
        <mxCell id="new3ilakPi4w05_GS01H-4" value="是否发放转渠道奖励" style="rhombus;whiteSpace=wrap;html=1;rounded=1;" vertex="1" parent="1">
          <mxGeometry x="210" y="590" width="80" height="80" as="geometry" />
        </mxCell>
        <mxCell id="new3ilakPi4w05_GS01H-9" value="break" style="shape=process;whiteSpace=wrap;html=1;backgroundOutline=1;rounded=1;" vertex="1" parent="1">
          <mxGeometry x="350" y="520" width="120" height="60" as="geometry" />
        </mxCell>
        <mxCell id="new3ilakPi4w05_GS01H-12" value="向http_proxy发起查询注册渠道的请求" style="whiteSpace=wrap;html=1;rounded=1;" vertex="1" parent="1">
          <mxGeometry x="190" y="760" width="120" height="60" as="geometry" />
        </mxCell>
        <mxCell id="new3ilakPi4w05_GS01H-18" value="" style="edgeStyle=orthogonalEdgeStyle;rounded=0;orthogonalLoop=1;jettySize=auto;html=1;" edge="1" parent="1" source="new3ilakPi4w05_GS01H-16" target="new3ilakPi4w05_GS01H-4">
          <mxGeometry relative="1" as="geometry" />
        </mxCell>
        <mxCell id="new3ilakPi4w05_GS01H-19" value="否" style="edgeLabel;html=1;align=center;verticalAlign=middle;resizable=0;points=[];" vertex="1" connectable="0" parent="new3ilakPi4w05_GS01H-18">
          <mxGeometry y="-3" relative="1" as="geometry">
            <mxPoint as="offset" />
          </mxGeometry>
        </mxCell>
        <mxCell id="new3ilakPi4w05_GS01H-20" style="edgeStyle=orthogonalEdgeStyle;rounded=0;orthogonalLoop=1;jettySize=auto;html=1;" edge="1" parent="1" source="new3ilakPi4w05_GS01H-16" target="new3ilakPi4w05_GS01H-9">
          <mxGeometry relative="1" as="geometry" />
        </mxCell>
        <mxCell id="new3ilakPi4w05_GS01H-21" value="是" style="edgeLabel;html=1;align=center;verticalAlign=middle;resizable=0;points=[];" vertex="1" connectable="0" parent="new3ilakPi4w05_GS01H-20">
          <mxGeometry x="-0.496" y="-5" relative="1" as="geometry">
            <mxPoint as="offset" />
          </mxGeometry>
        </mxCell>
        <mxCell id="new3ilakPi4w05_GS01H-16" value="是否是云游戏渠道登录" style="rhombus;whiteSpace=wrap;html=1;rounded=1;" vertex="1" parent="1">
          <mxGeometry x="210" y="430" width="80" height="80" as="geometry" />
        </mxCell>
        <mxCell id="new3ilakPi4w05_GS01H-24" value="" style="edgeStyle=orthogonalEdgeStyle;rounded=0;orthogonalLoop=1;jettySize=auto;html=1;" edge="1" parent="1" source="new3ilakPi4w05_GS01H-22" target="new3ilakPi4w05_GS01H-23">
          <mxGeometry relative="1" as="geometry" />
        </mxCell>
        <mxCell id="new3ilakPi4w05_GS01H-22" value="收到http_proxy的回包" style="rounded=1;whiteSpace=wrap;html=1;" vertex="1" parent="1">
          <mxGeometry x="560" y="340" width="120" height="60" as="geometry" />
        </mxCell>
        <mxCell id="new3ilakPi4w05_GS01H-26" value="" style="edgeStyle=orthogonalEdgeStyle;rounded=0;orthogonalLoop=1;jettySize=auto;html=1;entryX=0.5;entryY=0;entryDx=0;entryDy=0;" edge="1" parent="1" source="new3ilakPi4w05_GS01H-23" target="new3ilakPi4w05_GS01H-30">
          <mxGeometry relative="1" as="geometry">
            <mxPoint x="620" y="640" as="targetPoint" />
          </mxGeometry>
        </mxCell>
        <mxCell id="new3ilakPi4w05_GS01H-27" value="是" style="edgeLabel;html=1;align=center;verticalAlign=middle;resizable=0;points=[];" vertex="1" connectable="0" parent="new3ilakPi4w05_GS01H-26">
          <mxGeometry x="-0.2667" y="2" relative="1" as="geometry">
            <mxPoint as="offset" />
          </mxGeometry>
        </mxCell>
        <mxCell id="new3ilakPi4w05_GS01H-28" style="edgeStyle=orthogonalEdgeStyle;rounded=0;orthogonalLoop=1;jettySize=auto;html=1;entryX=1;entryY=0.5;entryDx=0;entryDy=0;" edge="1" parent="1" source="new3ilakPi4w05_GS01H-23" target="new3ilakPi4w05_GS01H-9">
          <mxGeometry relative="1" as="geometry" />
        </mxCell>
        <mxCell id="new3ilakPi4w05_GS01H-29" value="否" style="edgeLabel;html=1;align=center;verticalAlign=middle;resizable=0;points=[];" vertex="1" connectable="0" parent="new3ilakPi4w05_GS01H-28">
          <mxGeometry x="0.2625" y="4" relative="1" as="geometry">
            <mxPoint as="offset" />
          </mxGeometry>
        </mxCell>
        <mxCell id="new3ilakPi4w05_GS01H-23" value="注册渠道是否是云游戏" style="rhombus;whiteSpace=wrap;html=1;rounded=1;" vertex="1" parent="1">
          <mxGeometry x="580" y="510" width="80" height="80" as="geometry" />
        </mxCell>
        <mxCell id="new3ilakPi4w05_GS01H-30" value="标记已经发放奖励" style="shape=process;whiteSpace=wrap;html=1;backgroundOutline=1;rounded=1;" vertex="1" parent="1">
          <mxGeometry x="560" y="760" width="120" height="60" as="geometry" />
        </mxCell>
        <mxCell id="new3ilakPi4w05_GS01H-32" value="" style="rounded=0;whiteSpace=wrap;html=1;" vertex="1" parent="1">
          <mxGeometry y="710" width="120" height="60" as="geometry" />
        </mxCell>
        <mxCell id="new3ilakPi4w05_GS01H-35" value="" style="edgeStyle=orthogonalEdgeStyle;rounded=0;orthogonalLoop=1;jettySize=auto;html=1;" edge="1" parent="1" source="new3ilakPi4w05_GS01H-33" target="new3ilakPi4w05_GS01H-34">
          <mxGeometry relative="1" as="geometry" />
        </mxCell>
        <mxCell id="new3ilakPi4w05_GS01H-33" value="玩家登录" style="rounded=1;whiteSpace=wrap;html=1;" vertex="1" parent="1">
          <mxGeometry x="200" y="920" width="120" height="60" as="geometry" />
        </mxCell>
        <mxCell id="new3ilakPi4w05_GS01H-37" value="" style="edgeStyle=orthogonalEdgeStyle;rounded=0;orthogonalLoop=1;jettySize=auto;html=1;" edge="1" parent="1" source="new3ilakPi4w05_GS01H-34" target="new3ilakPi4w05_GS01H-36">
          <mxGeometry relative="1" as="geometry" />
        </mxCell>
        <mxCell id="new3ilakPi4w05_GS01H-34" value="取出first_reg_channel" style="whiteSpace=wrap;html=1;rounded=1;" vertex="1" parent="1">
          <mxGeometry x="200" y="1020" width="120" height="60" as="geometry" />
        </mxCell>
        <mxCell id="new3ilakPi4w05_GS01H-39" value="" style="edgeStyle=orthogonalEdgeStyle;rounded=0;orthogonalLoop=1;jettySize=auto;html=1;" edge="1" parent="1" source="new3ilakPi4w05_GS01H-36" target="new3ilakPi4w05_GS01H-38">
          <mxGeometry relative="1" as="geometry" />
        </mxCell>
        <mxCell id="new3ilakPi4w05_GS01H-48" value="否" style="edgeLabel;html=1;align=center;verticalAlign=middle;resizable=0;points=[];" vertex="1" connectable="0" parent="new3ilakPi4w05_GS01H-39">
          <mxGeometry x="-0.14" y="2" relative="1" as="geometry">
            <mxPoint as="offset" />
          </mxGeometry>
        </mxCell>
        <mxCell id="new3ilakPi4w05_GS01H-47" value="" style="edgeStyle=orthogonalEdgeStyle;rounded=0;orthogonalLoop=1;jettySize=auto;html=1;" edge="1" parent="1" source="new3ilakPi4w05_GS01H-36" target="new3ilakPi4w05_GS01H-46">
          <mxGeometry relative="1" as="geometry" />
        </mxCell>
        <mxCell id="new3ilakPi4w05_GS01H-36" value="是否是合法值" style="rhombus;whiteSpace=wrap;html=1;rounded=1;" vertex="1" parent="1">
          <mxGeometry x="220" y="1140" width="80" height="80" as="geometry" />
        </mxCell>
        <mxCell id="new3ilakPi4w05_GS01H-43" value="" style="edgeStyle=orthogonalEdgeStyle;rounded=0;orthogonalLoop=1;jettySize=auto;html=1;" edge="1" parent="1" source="new3ilakPi4w05_GS01H-38" target="new3ilakPi4w05_GS01H-42">
          <mxGeometry relative="1" as="geometry" />
        </mxCell>
        <mxCell id="new3ilakPi4w05_GS01H-38" value="说明是当前账户首次注册登录，填充first_reg_channel" style="whiteSpace=wrap;html=1;rounded=1;" vertex="1" parent="1">
          <mxGeometry x="400" y="1150" width="120" height="60" as="geometry" />
        </mxCell>
        <mxCell id="new3ilakPi4w05_GS01H-42" value="return" style="whiteSpace=wrap;html=1;rounded=1;" vertex="1" parent="1">
          <mxGeometry x="600" y="1150" width="120" height="60" as="geometry" />
        </mxCell>
        <mxCell id="new3ilakPi4w05_GS01H-50" value="" style="edgeStyle=orthogonalEdgeStyle;rounded=0;orthogonalLoop=1;jettySize=auto;html=1;" edge="1" parent="1" source="new3ilakPi4w05_GS01H-46" target="new3ilakPi4w05_GS01H-49">
          <mxGeometry relative="1" as="geometry" />
        </mxCell>
        <mxCell id="new3ilakPi4w05_GS01H-51" value="否" style="edgeLabel;html=1;align=center;verticalAlign=middle;resizable=0;points=[];" vertex="1" connectable="0" parent="new3ilakPi4w05_GS01H-50">
          <mxGeometry x="-0.0333" y="4" relative="1" as="geometry">
            <mxPoint as="offset" />
          </mxGeometry>
        </mxCell>
        <mxCell id="new3ilakPi4w05_GS01H-53" value="" style="edgeStyle=orthogonalEdgeStyle;rounded=0;orthogonalLoop=1;jettySize=auto;html=1;" edge="1" parent="1" source="new3ilakPi4w05_GS01H-46" target="new3ilakPi4w05_GS01H-52">
          <mxGeometry relative="1" as="geometry" />
        </mxCell>
        <mxCell id="new3ilakPi4w05_GS01H-46" value="是否是云游戏渠道注册" style="rhombus;whiteSpace=wrap;html=1;rounded=1;" vertex="1" parent="1">
          <mxGeometry x="220" y="1260" width="80" height="80" as="geometry" />
        </mxCell>
        <mxCell id="new3ilakPi4w05_GS01H-49" value="return" style="whiteSpace=wrap;html=1;rounded=1;" vertex="1" parent="1">
          <mxGeometry x="400" y="1270" width="120" height="60" as="geometry" />
        </mxCell>
        <mxCell id="new3ilakPi4w05_GS01H-55" value="" style="edgeStyle=orthogonalEdgeStyle;rounded=0;orthogonalLoop=1;jettySize=auto;html=1;" edge="1" parent="1" source="new3ilakPi4w05_GS01H-52" target="new3ilakPi4w05_GS01H-54">
          <mxGeometry relative="1" as="geometry" />
        </mxCell>
        <mxCell id="new3ilakPi4w05_GS01H-56" value="否" style="edgeLabel;html=1;align=center;verticalAlign=middle;resizable=0;points=[];" vertex="1" connectable="0" parent="new3ilakPi4w05_GS01H-55">
          <mxGeometry x="-0.12" y="-1" relative="1" as="geometry">
            <mxPoint as="offset" />
          </mxGeometry>
        </mxCell>
        <mxCell id="new3ilakPi4w05_GS01H-61" value="" style="edgeStyle=orthogonalEdgeStyle;rounded=0;orthogonalLoop=1;jettySize=auto;html=1;" edge="1" parent="1" source="new3ilakPi4w05_GS01H-52" target="new3ilakPi4w05_GS01H-60">
          <mxGeometry relative="1" as="geometry" />
        </mxCell>
        <mxCell id="new3ilakPi4w05_GS01H-52" value="当前login_channel是否是非云游戏渠道" style="rhombus;whiteSpace=wrap;html=1;rounded=1;" vertex="1" parent="1">
          <mxGeometry x="220" y="1380" width="80" height="80" as="geometry" />
        </mxCell>
        <mxCell id="new3ilakPi4w05_GS01H-54" value="return" style="whiteSpace=wrap;html=1;rounded=1;" vertex="1" parent="1">
          <mxGeometry x="400" y="1390" width="120" height="60" as="geometry" />
        </mxCell>
        <mxCell id="new3ilakPi4w05_GS01H-63" value="" style="edgeStyle=orthogonalEdgeStyle;rounded=0;orthogonalLoop=1;jettySize=auto;html=1;" edge="1" parent="1" source="new3ilakPi4w05_GS01H-60" target="new3ilakPi4w05_GS01H-62">
          <mxGeometry relative="1" as="geometry" />
        </mxCell>
        <mxCell id="new3ilakPi4w05_GS01H-64" value="是" style="edgeLabel;html=1;align=center;verticalAlign=middle;resizable=0;points=[];" vertex="1" connectable="0" parent="new3ilakPi4w05_GS01H-63">
          <mxGeometry x="-0.08" y="-2" relative="1" as="geometry">
            <mxPoint as="offset" />
          </mxGeometry>
        </mxCell>
        <mxCell id="new3ilakPi4w05_GS01H-66" value="" style="edgeStyle=orthogonalEdgeStyle;rounded=0;orthogonalLoop=1;jettySize=auto;html=1;" edge="1" parent="1" source="new3ilakPi4w05_GS01H-60" target="new3ilakPi4w05_GS01H-65">
          <mxGeometry relative="1" as="geometry" />
        </mxCell>
        <mxCell id="new3ilakPi4w05_GS01H-67" value="否" style="edgeLabel;html=1;align=center;verticalAlign=middle;resizable=0;points=[];" vertex="1" connectable="0" parent="new3ilakPi4w05_GS01H-66">
          <mxGeometry x="-0.2" y="-1" relative="1" as="geometry">
            <mxPoint as="offset" />
          </mxGeometry>
        </mxCell>
        <mxCell id="new3ilakPi4w05_GS01H-60" value="渠道奖励 channel_reward 是否发放" style="rhombus;whiteSpace=wrap;html=1;rounded=1;" vertex="1" parent="1">
          <mxGeometry x="220" y="1500" width="80" height="80" as="geometry" />
        </mxCell>
        <mxCell id="new3ilakPi4w05_GS01H-62" value="return" style="whiteSpace=wrap;html=1;rounded=1;" vertex="1" parent="1">
          <mxGeometry x="400" y="1510" width="120" height="60" as="geometry" />
        </mxCell>
        <mxCell id="new3ilakPi4w05_GS01H-69" value="" style="edgeStyle=orthogonalEdgeStyle;rounded=0;orthogonalLoop=1;jettySize=auto;html=1;" edge="1" parent="1" source="new3ilakPi4w05_GS01H-65" target="new3ilakPi4w05_GS01H-68">
          <mxGeometry relative="1" as="geometry" />
        </mxCell>
        <mxCell id="new3ilakPi4w05_GS01H-65" value="填充 channel_reward" style="whiteSpace=wrap;html=1;rounded=1;" vertex="1" parent="1">
          <mxGeometry x="200" y="1630" width="120" height="60" as="geometry" />
        </mxCell>
        <mxCell id="new3ilakPi4w05_GS01H-68" value="发放奖励" style="whiteSpace=wrap;html=1;rounded=1;" vertex="1" parent="1">
          <mxGeometry x="200" y="1720" width="120" height="60" as="geometry" />
        </mxCell>
      </root>
    </mxGraphModel>
  </diagram>
</mxfile>
